<svg xmlns="http://www.w3.org/2000/svg" xmlns:xlink="http://www.w3.org/1999/xlink" width="37" height="37" viewBox="0 0 37 37">
  <defs>
    <clipPath id="clip-path">
      <rect id="Ret칙ngulo_69" data-name="Ret칙ngulo 69" width="37" height="37" rx="5" transform="translate(2372 8382.377)" fill="#9b2018"/>
    </clipPath>
  </defs>
  <g id="Grupo_de_m치scara_3" data-name="Grupo de m치scara 3" transform="translate(-2372 -8382.377)" clip-path="url(#clip-path)">
    <g id="__TEMP__SVG__" transform="translate(2372 8382.377)">
      <g id="Grupo_166" data-name="Grupo 166">
        <path id="Caminho_12" data-name="Caminho 12" d="M18.5,0c-5.02,0-5.652.023-7.624.111a13.631,13.631,0,0,0-4.493.86A9.058,9.058,0,0,0,3.106,3.106,9.081,9.081,0,0,0,.971,6.383a13.551,13.551,0,0,0-.86,4.486C.023,12.846,0,13.475,0,18.5s.023,5.652.111,7.624a13.629,13.629,0,0,0,.86,4.491A9.471,9.471,0,0,0,6.38,36.029a13.582,13.582,0,0,0,4.491.86c1.975.088,2.6.111,7.629.111s5.652-.023,7.627-.111a13.657,13.657,0,0,0,4.493-.86,9.471,9.471,0,0,0,5.409-5.411,13.689,13.689,0,0,0,.86-4.491c.088-1.973.111-2.6.111-7.627s-.023-5.654-.111-7.629a13.673,13.673,0,0,0-.86-4.489,9.079,9.079,0,0,0-2.134-3.277A9.044,9.044,0,0,0,30.618.971a13.61,13.61,0,0,0-4.493-.86C24.149.023,23.523,0,18.5,0H18.5ZM16.842,3.335H18.5c4.939,0,5.525.016,7.474.106a10.252,10.252,0,0,1,3.436.636A5.74,5.74,0,0,1,31.54,5.462,5.716,5.716,0,0,1,32.923,7.59a10.161,10.161,0,0,1,.636,3.434c.09,1.949.109,2.535.109,7.472s-.019,5.525-.109,7.474a10.235,10.235,0,0,1-.636,3.434,6.132,6.132,0,0,1-3.513,3.508,10.178,10.178,0,0,1-3.434.638c-1.949.088-2.534.109-7.474.109s-5.527-.021-7.476-.109a10.219,10.219,0,0,1-3.434-.638,5.73,5.73,0,0,1-2.127-1.383A5.735,5.735,0,0,1,4.077,29.4a10.221,10.221,0,0,1-.636-3.434c-.088-1.949-.106-2.534-.106-7.476s.019-5.522.106-7.472a10.236,10.236,0,0,1,.638-3.436A5.74,5.74,0,0,1,5.464,5.455,5.716,5.716,0,0,1,7.592,4.072a10.218,10.218,0,0,1,3.434-.638c1.707-.079,2.368-.1,5.816-.1v0ZM28.377,6.406a2.22,2.22,0,1,0,2.22,2.22,2.22,2.22,0,0,0-2.22-2.22ZM18.5,9A9.5,9.5,0,1,0,28,18.5,9.5,9.5,0,0,0,18.5,9Zm0,3.332A6.167,6.167,0,1,1,12.335,18.5,6.167,6.167,0,0,1,18.5,12.333Z" fill="#9b2018"/>
      </g>
    </g>
  </g>
</svg>
